<?xml version="1.0" encoding="UTF-8"?> <svg xmlns="http://www.w3.org/2000/svg" width="1321" height="128" viewBox="0 0 1321 128" fill="none"> <path d="M141.552 63.9655C141.552 76.7625 134.253 87.2845 121.361 87.2845H66.9505V40.6466H121.361C134.253 40.6466 141.552 51.0737 141.552 63.9655ZM42.242 0.264964V46.9942L17.2793 47.3155V127.666H130.651C165.63 128.14 191.603 98.5648 191.318 63.9655C191.603 29.1767 165.63 -0.208998 130.651 0.264964H42.242Z" fill="white"></path> <path d="M435.324 127.666V40.6466H494.38V0.264964H326.597V40.6466H385.653V127.666H435.324Z" fill="white"></path> <path d="M685.586 0.264964H629.658L694.876 127.666H753.931L819.243 0.264964H763.316L724.451 88.7063L685.586 0.264964Z" fill="white"></path> <path d="M954.522 0.0753784V127.476H1004.19V0.0753784H954.522Z" fill="white"></path> <path d="M1240.24 40.6466L1156.35 87.1897V127.666H1321V87.1897H1234.08L1321 40.6466V0.264964H1156.35V40.6466H1240.24Z" fill="white"></path> <path d="M42.2351 0.0753784H69.0942V127.925H42.2351L42.2351 0.0753784Z" fill="#F24E1E"></path> </svg> 