<?xml version="1.0" encoding="UTF-8"?> <svg xmlns="http://www.w3.org/2000/svg" width="100" height="100" viewBox="0 0 100 100" fill="none"> <path d="M69.1034 37.4906C71.9784 36.0861 74.2853 33.7697 75.65 30.9172C77.0146 28.0647 77.3569 24.8435 76.6212 21.7762C75.8856 18.7089 74.1152 15.9755 71.5973 14.0193C69.0793 12.0632 65.9616 10.9993 62.75 11H37.25C34.0384 10.9993 30.9207 12.0632 28.4027 14.0193C25.8848 15.9755 24.1144 18.7089 23.3788 21.7762C22.6431 24.8435 22.9854 28.0647 24.35 30.9172C25.7147 33.7697 28.0216 36.0861 30.8966 37.4906C28.5247 38.6487 26.529 40.433 25.134 42.6429C23.739 44.8528 23 47.4007 23 50.0001C23 52.5996 23.7391 55.1475 25.1341 57.3573C26.5292 59.5672 28.5249 61.3515 30.8968 62.5096C28.6252 63.6203 26.6973 65.3063 25.3124 67.3932C23.9275 69.48 23.1358 71.892 23.0194 74.3796C22.903 76.8672 23.4659 79.3401 24.65 81.5427C25.8342 83.7453 27.5965 85.5976 29.7547 86.908C31.913 88.2184 34.3889 88.9394 36.9263 88.9963C39.4637 89.0533 41.9706 88.4442 44.1877 87.232C46.4048 86.0198 48.2516 84.2486 49.5372 82.1014C50.8227 79.9543 51.5004 77.5091 51.5 75.0189V58.5662C52.8116 60.2255 54.4874 61.5735 56.4029 62.5101C58.3184 63.4467 60.4244 63.9477 62.5644 63.9759C64.7044 64.0041 66.8234 63.5589 68.7639 62.6732C70.7044 61.7875 72.4165 60.4842 73.7731 58.86C75.1297 57.2359 76.0958 55.3327 76.5996 53.2919C77.1035 51.2511 77.1321 49.1251 76.6835 47.0719C76.2348 45.0188 75.3203 43.0912 74.008 41.4324C72.6957 39.7737 71.0193 38.4264 69.1034 37.4906V37.4906ZM74 24.9813C73.9966 27.9064 72.8113 30.7109 70.7038 32.7799C68.5963 34.849 65.7387 36.0138 62.7573 36.0189L62.75 36.0187L62.7355 36.0191L51.5 36.0187V13.9434H62.75C65.7326 13.9467 68.5922 15.1107 70.7012 17.18C72.8103 19.2493 73.9966 22.0549 74 24.9813V24.9813ZM54.019 38.9622C53.0781 39.6804 52.2319 40.5106 51.5 41.4338V38.9622L54.019 38.9622ZM26 24.9813C26.0034 22.0549 27.1897 19.2493 29.2988 17.18C31.4078 15.1107 34.2674 13.9467 37.25 13.9434H48.5V36.0187H37.25L37.2429 36.0189C34.2615 36.0138 31.4038 34.849 29.2963 32.78C27.1888 30.7109 26.0034 27.9064 26 24.9813V24.9813ZM37.25 86.0566C35.7719 86.0578 34.308 85.7731 32.9421 85.219C31.5761 84.6648 30.3349 83.852 29.2893 82.8269C28.2436 81.8018 27.4142 80.5847 26.8482 79.2449C26.2823 77.9052 25.991 76.4692 25.991 75.0189C25.991 73.5687 26.2823 72.1326 26.8482 70.7929C27.4142 69.4532 28.2436 68.236 29.2893 67.2109C30.3349 66.1859 31.5761 65.373 32.9421 64.8189C34.308 64.2647 35.7719 63.9801 37.25 63.9813L48.5 63.9809V75.0189C48.4966 77.9453 47.3103 80.7509 45.2012 82.8201C43.0921 84.8894 40.2326 86.0533 37.25 86.0566V86.0566ZM48.5 61.0375L37.25 61.0378C34.2673 61.0374 31.4069 59.8747 29.2976 57.8055C27.1883 55.7364 26.0029 52.93 26.002 50.0036C26.001 47.0771 27.1846 44.2701 29.2926 42.1996C31.4005 40.1291 34.2602 38.9647 37.2429 38.9623L37.25 38.9625L48.5 38.9622V61.0375ZM62.75 61.0378C59.7682 61.0369 56.9088 59.8746 54.8 57.8063C52.6913 55.7379 51.5057 52.9328 51.5037 50.0073C51.5018 47.0817 52.6837 44.2751 54.7898 42.2041C56.8959 40.1331 59.7538 38.9672 62.7355 38.9625H62.75L62.7571 38.9623C65.7389 38.966 68.5973 40.1311 70.7041 42.2014C72.8108 44.2717 73.9937 47.078 73.9928 50.0036C73.9918 52.9292 72.8071 55.7347 70.699 57.8037C68.5909 59.8727 65.7318 61.036 62.75 61.0378V61.0378Z" fill="#F24E1E"></path> </svg> 