<?xml version="1.0" encoding="UTF-8"?> <svg xmlns="http://www.w3.org/2000/svg" width="100" height="100" viewBox="0 0 100 100" fill="none"> <path d="M49.9259 14C49.3736 14 48.9259 14.4477 48.9259 15V19.7068C48.9259 20.259 48.4782 20.7068 47.9259 20.7068H43.7384C43.2522 20.7068 42.8581 21.1009 42.8581 21.5871V21.5871C42.8581 22.0732 43.2522 22.4674 43.7384 22.4674H47.9259C48.4782 22.4674 48.9259 22.9151 48.9259 23.4674V28.1741C48.9259 28.7264 49.3736 29.1741 49.9259 29.1741H50.0834C50.6357 29.1741 51.0834 28.7264 51.0834 28.1741V23.4674C51.0834 22.9151 51.5311 22.4674 52.0834 22.4674H56.2709C56.7571 22.4674 57.1512 22.0732 57.1512 21.5871V21.5871C57.1512 21.1009 56.7571 20.7068 56.2709 20.7068H52.0834C51.5311 20.7068 51.0834 20.259 51.0834 19.7068V15C51.0834 14.4477 50.6357 14 50.0834 14H49.9259ZM68.5247 20.8872C67.9725 20.8872 67.5247 21.3349 67.5247 21.8872V29.7703C67.5247 30.3226 67.077 30.7703 66.5247 30.7703H59.4068C58.8545 30.7703 58.4068 31.218 58.4068 31.7703V32.5859C58.4068 33.1382 58.8545 33.5859 59.4068 33.5859H66.5247C67.077 33.5859 67.5247 34.0336 67.5247 34.5859V42.2932C67.5247 42.8455 67.9725 43.2932 68.5247 43.2932H69.7456C70.2962 43.2932 70.7432 42.8482 70.7456 42.2976L70.7621 38.4773L70.8212 34.6529C70.8295 34.113 71.265 33.6772 71.8049 33.6684L75.3523 33.611L78.8509 33.5915C79.401 33.5884 79.8453 33.1416 79.8453 32.5915V31.7703C79.8453 31.218 79.3976 30.7703 78.8453 30.7703H71.7413C71.189 30.7703 70.7413 30.3226 70.7413 29.7703V21.8872C70.7413 21.3349 70.2936 20.8872 69.7413 20.8872H68.5247ZM30.2702 21.063C29.718 21.063 29.2702 21.5107 29.2702 22.063V29.7817C29.2702 30.334 28.8225 30.7817 28.2702 30.7817H21.0575C20.5052 30.7817 20.0575 31.2294 20.0575 31.7817V32.5859C20.0575 33.1382 20.5052 33.5859 21.0575 33.5859H28.2702C28.8225 33.5859 29.2702 34.0336 29.2702 34.5859V42.3047C29.2702 42.8569 29.718 43.3047 30.2702 43.3047H31.3065C31.8587 43.3047 32.3065 42.8569 32.3065 42.3047V34.5859C32.3065 34.0336 32.7542 33.5859 33.3065 33.5859H40.5909C41.1431 33.5859 41.5909 33.1382 41.5909 32.5859V31.7703C41.5909 31.218 41.1431 30.7703 40.5909 30.7703H33.3065C32.7542 30.7703 32.3065 30.3226 32.3065 29.7703V22.063C32.3065 21.5107 31.8587 21.063 31.3065 21.063H30.2702ZM49.0356 37.1094C48.4833 37.1094 48.0356 37.5571 48.0356 38.1094V47.0499C48.0356 47.6021 47.5879 48.0499 47.0356 48.0499H38.8493C38.2971 48.0499 37.8493 48.4976 37.8493 49.0499V50.667C37.8493 51.2193 38.2971 51.667 38.8493 51.667H47.0356C47.5879 51.667 48.0356 52.1147 48.0356 52.667V61.6211C48.0356 62.1734 48.4833 62.6211 49.0356 62.6211H50.9875C51.5398 62.6211 51.9875 62.1734 51.9875 61.6211V52.667C51.9875 52.1147 52.4352 51.667 52.9875 51.667H61.1876C61.7399 51.667 62.1877 51.2193 62.1877 50.667V49.0499C62.1877 48.4976 61.7399 48.0499 61.1877 48.0499H52.9875C52.4352 48.0499 51.9875 47.6021 51.9875 47.0499V38.1094C51.9875 37.5571 51.5398 37.1094 50.9875 37.1094H49.0356ZM79.0139 41.8272C78.4616 41.8272 78.0139 42.2749 78.0139 42.8272V47.5842C78.0139 48.1365 77.5662 48.5842 77.0139 48.5842H72.7981C72.2458 48.5842 71.7981 49.0319 71.7981 49.5842V50.0596C71.7981 50.6118 72.2458 51.0596 72.7981 51.0596H77.0139C77.5662 51.0596 78.0139 51.5073 78.0139 52.0596V56.9444C78.0139 57.4967 78.4616 57.9444 79.0139 57.9444H79.7495C80.3018 57.9444 80.7495 57.4967 80.7495 56.9444V52.0596C80.7495 51.5073 81.1972 51.0596 81.7495 51.0596H86C86.5523 51.0596 87 50.6118 87 50.0596V49.5842C87 49.0319 86.5523 48.5842 86 48.5842H81.7495C81.1972 48.5842 80.7495 48.1365 80.7495 47.5842V42.8272C80.7495 42.2749 80.3018 41.8272 79.7495 41.8272H79.0139ZM20.0656 42.22C19.5235 42.22 19.084 42.6595 19.084 43.2016V47.8445C19.084 48.3968 18.6363 48.8445 18.084 48.8445H13.9454C13.4233 48.8445 13 49.2678 13 49.7899V49.7899C13 50.312 13.4233 50.7353 13.9454 50.7353H18.084C18.6363 50.7353 19.084 51.183 19.084 51.7353V56.4215C19.084 56.9738 19.5317 57.4215 20.084 57.4215H20.1444C20.6967 57.4215 21.1444 56.9738 21.1444 56.4215V51.7353C21.1444 51.183 21.5921 50.7353 22.1444 50.7353H26.3662C26.8884 50.7353 27.3116 50.312 27.3116 49.7899V49.7899C27.3116 49.2678 26.8884 48.8445 26.3662 48.8445H22.0472C21.495 48.8445 21.0472 48.3968 21.0472 47.8445V43.2016C21.0472 42.6595 20.6078 42.22 20.0656 42.22V42.22ZM68.5247 55.9829C67.9725 55.9829 67.5247 56.4306 67.5247 56.9829V64.8911C67.5247 65.4434 67.077 65.8912 66.5247 65.8912H59.2126C58.6603 65.8912 58.2126 66.3389 58.2126 66.8912V67.7113C58.2126 68.2636 58.6603 68.7113 59.2126 68.7113H66.5247C67.077 68.7113 67.5247 69.159 67.5247 69.7113V77.4963C67.5247 78.0486 67.9725 78.4963 68.5247 78.4963H69.8246C70.3769 78.4963 70.8246 78.0486 70.8246 77.4963V69.7113C70.8246 69.159 71.2723 68.7113 71.8246 68.7113H79.0257C79.578 68.7113 80.0257 68.2636 80.0257 67.7113V66.8911C80.0257 66.3389 79.578 65.8912 79.0257 65.8912H71.8246C71.2723 65.8912 70.8246 65.4434 70.8246 64.8912V56.9829C70.8246 56.4306 70.3769 55.9829 69.8246 55.9829H68.5247ZM30.0855 56.0013C29.5358 56.005 29.0922 56.4516 29.0922 57.0013V64.8911C29.0922 65.4434 28.6445 65.8912 28.0922 65.8912H20.9743C20.422 65.8912 19.9743 66.3389 19.9743 66.8912V67.7113C19.9743 68.2636 20.422 68.7113 20.9743 68.7113H28.0922C28.6445 68.7113 29.0922 69.159 29.0922 69.7113V77.4278C29.0922 77.9801 29.5399 78.4278 30.0922 78.4278H31.4868C32.0391 78.4278 32.4868 77.9801 32.4868 77.4278V69.7113C32.4868 69.159 32.9345 68.7113 33.4868 68.7113H40.5909C41.1431 68.7113 41.5909 68.2636 41.5909 67.7113V66.8911C41.5909 66.3389 41.1431 65.8912 40.5909 65.8912H33.4868C32.9345 65.8912 32.4868 65.4434 32.4868 64.8912V56.9966C32.4868 56.4443 32.0391 55.9966 31.4868 55.9966H30.7918L30.0855 56.0013ZM49.5651 69.9467C49.0129 69.9467 48.5651 70.3944 48.5651 70.9467V75.6535C48.5651 76.2058 48.1174 76.6535 47.5651 76.6535H43.495C42.9427 76.6535 42.495 77.1012 42.495 77.6535V78.1128C42.495 78.6651 42.9427 79.1128 43.495 79.1128H47.5651C48.1174 79.1128 48.5651 79.5606 48.5651 80.1128V85C48.5651 85.5523 49.0129 86 49.5651 86H50.4434C50.9914 86 51.4374 85.5589 51.4433 85.0109L51.4695 82.5998L51.5027 80.0996C51.51 79.5525 51.9555 79.1128 52.5026 79.1128H56.5998C57.1521 79.1128 57.5998 78.6651 57.5998 78.1128V77.6535C57.5998 77.1012 57.1521 76.6535 56.5998 76.6535H52.4326C51.8803 76.6535 51.4326 76.2058 51.4326 75.6535V70.9467C51.4326 70.3944 50.9848 69.9467 50.4326 69.9467H49.5651Z" fill="#F24E1E"></path> </svg> 